<?xml version="1.0" encoding="utf-8"?>
<!-- Generator: Adobe Illustrator 27.3.1, SVG Export Plug-In . SVG Version: 6.00 Build 0)  -->
<svg version="1.1" id="Layer_1" xmlns="http://www.w3.org/2000/svg" xmlns:xlink="http://www.w3.org/1999/xlink" x="0px" y="0px"
	 viewBox="0 0 1200 1200" style="enable-background:new 0 0 1200 1200;" xml:space="preserve">
<style type="text/css">
	.st0{fill:#FEBD1F;}
</style>
<g>
	<path class="st0" d="M778.8,464.8l-1.2-11.4l-8.7,7.5c-18.7,16.2-36.2,24.3-51.9,24.3c-30.5,0-47-30.7-55.5-56.5l-1.4-4.1h-117
		l-1.3,4.1c-8.5,25.8-25,56.5-55.5,56.5c-15.7,0-33.1-8.2-51.9-24.3l-8.7-7.5l-1.2,11.4c-30,285,32.5,360.7,174.9,414.4l2.1,0.8
		l2.1-0.8C746.3,825.5,808.8,749.8,778.8,464.8L778.8,464.8z M601.8,816.7c-34.8-14.3-57.2-28.2-74.6-46.4l-1.3-1.4l-6.8-1.2
		l208.1-172.8C725.5,752.1,671.9,788,601.8,816.7L601.8,816.7z M492.9,712.7c-14-40.3-19-95.8-15.3-168.9c3,0.3,5.9,0.4,8.9,0.4
		c18.5,0,64.2-6,95.5-60.6h39.5c16.2,28.2,38.8,47.5,65.5,55.9l1,0.3l13.8-0.7L492.9,712.7z"/>
	<path class="st0" d="M1141.5,462.4L601.8,169.9L62,462.4l28.8,53.1l91.7-49.7V1030H1021V465.8l91.7,49.7L1141.5,462.4z
		 M960.5,969.6H243V433.1l358.8-194.4l358.8,194.4L960.5,969.6z"/>
</g>
</svg>
