<?xml version="1.0" encoding="UTF-8"?>
<svg width="1200pt" height="1200pt" version="1.1" viewBox="0 0 1200 1200" xmlns="http://www.w3.org/2000/svg">
 <g>
  <path d="m398.06 880.69h403.88v127.69h-403.88z"/>
  <path d="m398.06 696.94h403.88v127.69h-403.88z"/>
  <path d="m894 103.88h-158.06v-20.625c0-12.133-4.8203-23.77-13.398-32.352-8.582-8.5781-20.219-13.398-32.352-13.398h-180.38c-12.133 0-23.77 4.8203-32.352 13.398-8.5781 8.582-13.398 20.219-13.398 32.352v20.625h-158.06c-16.508 0-32.344 6.5586-44.016 18.234-11.676 11.672-18.234 27.508-18.234 44.016v934.12c0 16.508 6.5586 32.344 18.234 44.016 11.672 11.676 27.508 18.234 44.016 18.234h588c16.508 0 32.344-6.5586 44.016-18.234 11.676-11.672 18.234-27.508 18.234-44.016v-934.12c0-16.508-6.5586-32.344-18.234-44.016-11.672-11.676-27.508-18.234-44.016-18.234zm-23.25 973.12h-541.5v-887.62h541.5z"/>
 </g>
</svg>
