<?xml version="1.0" encoding="utf-8"?>
<!-- Generator: Adobe Illustrator 27.3.1, SVG Export Plug-In . SVG Version: 6.00 Build 0)  -->
<svg version="1.1" id="Layer_1" xmlns="http://www.w3.org/2000/svg" xmlns:xlink="http://www.w3.org/1999/xlink" x="0px" y="0px"
	 viewBox="0 0 1200 1200" style="enable-background:new 0 0 1200 1200;" xml:space="preserve">
<style type="text/css">
	.st0{fill-rule:evenodd;clip-rule:evenodd;fill:#EE3437;}
</style>
<g>
	<path class="st0" d="M403.1,431.2c36.2,0,65.6-29.4,65.6-65.6S439.4,300,403.1,300s-65.6,29.4-65.6,65.6S366.9,431.2,403.1,431.2z
		 M403.1,506.2c77.7,0,140.6-63,140.6-140.6S480.8,225,403.1,225s-140.6,63-140.6,140.6S325.5,506.2,403.1,506.2z"/>
	<path class="st0" d="M450,300c0-20.7,16.8-37.5,37.5-37.5h534.4c57,0,103.1,46.2,103.1,103.1s-46.2,103.1-103.1,103.1H487.5
		c-20.7,0-37.5-16.8-37.5-37.5s16.8-37.5,37.5-37.5h534.4c15.5,0,28.1-12.6,28.1-28.1s-12.6-28.1-28.1-28.1H487.5
		C466.8,337.5,450,320.7,450,300L450,300z"/>
	<path class="st0" d="M225,825c0-41.4,33.6-75,75-75h206.2c41.4,0,75,33.6,75,75v112.5c0,41.4-33.6,75-75,75H300
		c-41.4,0-75-33.6-75-75V825z M506.2,825H300v112.5h206.2V825z"/>
	<path class="st0" d="M300,675c0-41.4,33.6-75,75-75h56.2c41.4,0,75,33.6,75,75v75c0,41.4-33.6,75-75,75H375c-41.4,0-75-33.6-75-75
		V675z M431.2,675H375v75h56.2V675z"/>
	<path class="st0" d="M225,75c-62.1,0-112.5,50.4-112.5,112.5v825c0,62.1,50.4,112.5,112.5,112.5h356.2
		c62.1,0,112.5-50.4,112.5-112.5V393.8h-75v618.8c0,20.7-16.8,37.5-37.5,37.5H225c-20.7,0-37.5-16.8-37.5-37.5v-825
		c0-20.7,16.8-37.5,37.5-37.5h356.2c20.7,0,37.5,16.8,37.5,37.5v150h75v-150c0-62.1-50.4-112.5-112.5-112.5H225z"/>
</g>
</svg>
