<?xml version="1.0" encoding="UTF-8"?>
<svg width="1200pt" height="1200pt" version="1.1" viewBox="0 0 1200 1200" xmlns="http://www.w3.org/2000/svg">
 <path d="m1129.4 1022.2h-334.8v-19.32h327.24c5.8789 0 10.559-4.6797 10.559-10.559s-4.6797-10.559-10.559-10.559l-439.92-0.003906v-141.6h439.8c5.8789 0 10.559-4.6797 10.559-10.559v-0.12109-0.12109c0-5.8789-4.6797-10.559-10.559-10.559h-420.96v-63c0-32.879 26.762-59.52 59.52-59.52h361.44c5.8789 0 10.559-4.8008 10.559-10.559 0-5.8789-4.6797-10.559-10.559-10.559h-7.4414v-25.32c0-20.52-16.68-37.199-37.199-37.199l-273.84-0.003907c-20.52 0-37.199 16.68-37.199 37.199v25.32h-5.8789c-14.879 0-28.801 4.0781-40.801 11.16v-150c0-11.762 9.6016-21.359 21.359-21.359h67.078c37.441 0 73.801-10.078 104.88-29.039 62.762-38.281 135-58.559 208.92-58.559 5.8789 0 10.559-4.8008 10.559-10.559 0-5.8789-4.8008-10.559-10.559-10.559-77.762 0-153.84 21.359-219.96 61.68-27.84 16.922-60.238 25.922-93.84 25.922h-67.078c-23.52 0-42.602 19.078-42.602 42.602v167.88c-11.762 14.039-18.719 32.039-18.719 51.719v63.121h-8.1602c-5.8789 0-10.559 4.8008-10.559 10.559v162.6c0 5.8789 4.8008 10.559 10.559 10.559h27v19.32h-89.039l-0.003907-859.45c0-5.8789-4.6797-10.559-10.559-10.559-5.8789 0-10.559 4.6797-10.559 10.559v859.44h-248.4c2.3984-1.9219 4.0781-4.8008 4.0781-8.1602l0.003906-169.68c29.16-14.039 147.48-75.961 147.48-154.2 0-83.762-143.16-292.08-149.28-300.96-3.9609-5.7617-13.559-5.7617-17.52 0-0.48047 0.60156-43.68 63.359-82.922 132.96-2.8789 5.0391-1.0781 11.52 4.0781 14.398 5.0391 2.8789 11.52 1.0781 14.398-4.0781 28.32-50.16 58.68-96.602 73.199-118.44 31.441 47.039 136.8 209.88 136.8 276 0 59.16-90 111.6-126.24 130.44v-56.641c0-5.8789-4.6797-10.559-10.559-10.559-5.8789 0-10.559 4.6797-10.559 10.559v56.641c-36.238-18.719-126.24-71.16-126.24-130.44 0-5.8789-4.8008-10.559-10.559-10.559-5.8789 0-10.559 4.6797-10.559 10.559 0 78.238 118.32 140.16 147.48 154.2v169.68c0 3.3594 1.6797 6.2383 4.0781 8.1602h-268.32c-5.8789 0.12109-10.559 4.8008-10.559 10.68s4.6797 10.559 10.559 10.559h1070.8c5.8789 0 10.559-4.6797 10.559-10.559 0.125-5.8789-4.5547-10.559-10.434-10.559zm-342-372.48c0-8.7617 7.1992-15.961 15.961-15.961h273.72c8.7617 0 15.961 7.1992 15.961 15.961v25.32h-305.64zm-14.043 372.48h-53.879v-19.32h53.879zm-559.68-718.56c6.6016-15.84 15.961-30 27.961-42 12.121-12 26.16-21.48 42-27.961 15.48-6.4805 31.922-9.7188 48.602-9.8398 17.281 0.48047 34.32 3.1211 50.398 9.8398 15.84 6.6016 30 15.961 42 28.078 12 12 21.48 26.16 28.078 42 6.4805 15.602 9.7188 31.922 9.8398 48.602 0.12109 17.281-3.2383 34.32-9.8398 50.398-3.3594 8.1602-11.281 13.078-19.559 13.078-2.7617 0-5.3984-0.48047-8.0391-1.5586-10.801-4.4414-15.961-16.922-11.52-27.719 4.4414-10.922 6.7188-22.32 6.6016-33.961-0.12109-11.16-2.2812-22.199-6.6016-32.641-4.4414-10.68-10.801-20.16-18.84-28.199-8.0391-8.0391-17.52-14.398-28.199-18.84-10.68-4.4414-21.84-6.6016-33.238-6.6016h-0.71875c-11.281 0.12109-22.199 2.2812-32.641 6.6016-10.68 4.4414-20.16 10.801-28.199 18.84-8.0391 8.0391-14.398 17.52-18.84 28.199-4.4414 10.922-6.7188 22.199-6.6016 33.84 0.12109 11.281 2.2812 22.199 6.6016 32.641 4.4414 10.801-0.60156 23.281-11.52 27.719-10.801 4.4414-23.16-0.60156-27.719-11.52-6.3594-15.48-9.7188-31.801-9.8398-48.602-0.24609-17.277 3.1133-34.195 9.832-50.395zm308.16 28.32h27.719c11.762 0 21.238 9.4805 21.238 21.238 0 11.762-9.4805 21.238-21.238 21.238h-27.719c-11.762 0-21.238-9.4805-21.238-21.238 0-11.762 9.4805-21.238 21.238-21.238zm-426.24 21.238c0-11.762 9.4805-21.238 21.238-21.238h27.719c11.762 0 21.238 9.4805 21.238 21.238 0 11.762-9.4805 21.238-21.238 21.238h-27.719c-11.758 0-21.238-9.4766-21.238-21.238zm216.36-188.64v-27.719c0-11.762 9.4805-21.238 21.238-21.238 11.762 0 21.238 9.4805 21.238 21.238v27.719c0 11.762-9.4805 21.238-21.238 21.238-11.758 0.003907-21.238-9.4766-21.238-21.238zm139.56 70.32c-8.2812-8.2812-8.2812-21.719 0-30l19.559-19.559c8.2812-8.2812 21.719-8.2812 30 0s8.2812 21.719 0 30l-19.559 19.559c-4.1992 4.1992-9.6016 6.2383-15 6.2383-5.3984-0.11719-10.797-2.1562-15-6.2383zm-236.76 236.64c8.2812 8.2812 8.2812 21.719 0 30l-19.559 19.559c-4.1992 4.1992-9.6016 6.2383-15 6.2383-5.3984 0-10.801-2.0391-15-6.2383-8.2812-8.2812-8.2812-21.719 0-30l19.559-19.559c8.2773-8.2812 21.719-8.1602 30 0zm286.44 19.68c8.2812 8.2812 8.2812 21.719 0 30-4.1992 4.1992-9.6016 6.2383-15 6.2383-5.3984 0-10.801-2.0391-15-6.2383l-19.559-19.559c-8.2812-8.2812-8.2812-21.719 0-30s21.719-8.2812 30 0zm-336-276c-8.2812-8.2812-8.2812-21.719 0-30s21.719-8.2812 30 0l19.559 19.559c8.2812 8.2812 8.2812 21.719 0 30-4.1992 4.1992-9.6016 6.2383-15 6.2383s-10.801-2.0391-15-6.2383zm544.8-41.16c5.0391-8.7617 16.199-11.641 24.84-6.6016l50.52 29.16v-58.32c0-10.078 8.1602-18.238 18.238-18.238s18.238 8.1602 18.238 18.238v58.32l50.52-29.16c8.6406-5.0391 19.801-2.0391 24.84 6.6016s2.0391 19.801-6.7188 24.84l-50.516 29.16 50.52 29.16c8.6406 5.0391 11.641 16.199 6.6016 24.84-3.3594 5.8789-9.4805 9.1211-15.719 9.1211-3.1211 0-6.2383-0.71875-9.1211-2.3984l-50.52-29.16v58.32c0 10.078-8.1602 18.238-18.238 18.238-10.078 0-18.238-8.1602-18.238-18.238v-58.32l-50.52 29.16c-2.8789 1.6797-6 2.3984-9.1211 2.3984-6.2383 0-12.359-3.2383-15.719-9.1211-5.0391-8.7617-2.0391-19.801 6.6016-24.84l50.633-29.16-50.52-29.16c-8.6406-5.0391-11.641-16.078-6.6016-24.84zm192.84 36.719c0-11.762 9.4805-21.238 21.238-21.238h173.76c11.762 0 21.238 9.4805 21.238 21.238 0 11.762-9.4805 21.238-21.238 21.238h-173.76c-11.758-0.11719-21.238-9.5977-21.238-21.238zm72 122.76h6.6016l-0.12109-0.12109 30.121-60.238c3.6016-7.1992 10.922-11.762 18.961-11.762h67.559c11.762 0 21.238 9.4805 21.238 21.238 0 11.641-9.4805 21.238-21.238 21.238h-54.48l-14.762 29.52-0.12109 0.12109h69.238c11.762 0 21.238 9.4805 21.238 21.238 0 11.762-9.4805 21.238-21.238 21.238h-209.76c-11.762 0-21.238-9.4805-21.238-21.238 0-11.762 9.4805-21.238 21.238-21.238z"/>
</svg>
