<?xml version="1.0" encoding="utf-8"?>
<!-- Generator: Adobe Illustrator 27.3.1, SVG Export Plug-In . SVG Version: 6.00 Build 0)  -->
<svg version="1.1" id="Layer_1" xmlns="http://www.w3.org/2000/svg" xmlns:xlink="http://www.w3.org/1999/xlink" x="0px" y="0px"
	 viewBox="0 0 1200 1200" style="enable-background:new 0 0 1200 1200;" xml:space="preserve">
<style type="text/css">
	.st0{fill:#F68926;}
</style>
<path class="st0" d="M600,60C301.8,60,60,301.8,60,600s241.8,540,540,540s540-241.8,540-540S898.2,60,600,60z M600,63.5
	c296.3,0,536.5,240.2,536.5,536.5S896.3,1136.5,600,1136.5S63.5,896.3,63.5,600C63.5,303.7,303.7,63.5,600,63.5L600,63.5z
	 M600,104.6L600,104.6c-131.4,0-257.4,52.2-350.3,145.1C156.8,342.6,104.6,468.6,104.6,600c0,131.4,52.2,257.4,145.1,350.3
	c92.9,92.9,218.9,145.1,350.3,145.1c131.4,0,257.4-52.2,350.3-145.1c92.9-92.9,145.1-218.9,145.1-350.3
	c0-131.4-52.2-257.4-145.1-350.3C857.4,156.8,731.4,104.6,600,104.6L600,104.6z M589.9,324.3h16.9l-2.6,79.7h-11.6L589.9,324.3z
	 M581.1,324.8l3.9,55l-3.5,0.2l-3.8-55L581.1,324.8z M615.6,324.8l3.5,0.2l-3.9,55l-3.5-0.2L615.6,324.8z M571.6,325.6l5.8,54.8
	l-3.5,0.4l-5.8-54.8L571.6,325.6z M625.1,325.6l3.5,0.4l-5.8,54.8l-3.5-0.4L625.1,325.6z M562.2,326.7l7.7,54.6l-3.5,0.5l-7.7-54.6
	L562.2,326.7z M634.5,326.7l3.5,0.5l-7.7,54.6l-3.5-0.5L634.5,326.7z M552.8,328.1l9.6,54.3l-3.5,0.6l-9.6-54.3L552.8,328.1z
	 M643.9,328.1l3.5,0.6l-9.6,54.3l-3.5-0.6L643.9,328.1z M543.4,329.9l11.5,53.9l-3.5,0.7L540,330.6L543.4,329.9z M653.3,329.9
	l3.4,0.7l-11.4,53.9l-3.5-0.7L653.3,329.9z M534.2,332l13.3,53.5l-3.4,0.8l-13.3-53.5L534.2,332z M662.6,332l3.4,0.8l-13.3,53.5
	l-3.4-0.8L662.6,332z M525,334.4l15.2,53l-3.4,1l-15.2-53L525,334.4z M671.8,334.4l3.4,1l-15.2,53l-3.4-1L671.8,334.4z M515.9,337.1
	l17,52.5l-3.3,1.1l-17-52.4L515.9,337.1z M680.9,337.1l3.3,1.1l-17,52.4l-3.3-1.1L680.9,337.1z M506.9,340.1l18.9,51.8l-3.3,1.2
	l-18.8-51.8L506.9,340.1L506.9,340.1z M689.9,340.1l3.3,1.2l-18.8,51.8l-3.3-1.2L689.9,340.1L689.9,340.1z M497.9,343.5l20.7,51.1
	l-3.2,1.3l-20.7-51.1L497.9,343.5z M698.8,343.5l3.3,1.3l-20.7,51.1l-3.3-1.3L698.8,343.5z M489.2,347.1l22.4,50.4l-3.2,1.4
	L486,348.6L489.2,347.1z M707.5,347.1l3.2,1.4l-22.4,50.4l-3.2-1.4L707.5,347.1z M480.5,351.1l24.2,49.6l-3.1,1.5l-24.2-49.6
	L480.5,351.1z M716.2,351.1l3.1,1.5l-24.2,49.6l-3.1-1.5L716.2,351.1z M472,355.3l25.9,48.7l-3.1,1.6L468.9,357L472,355.3z
	 M724.7,355.3l3.1,1.6l-25.9,48.7l-3.1-1.6L724.7,355.3z M463.7,359.9l27.6,47.8l-3,1.8l-27.6-47.8L463.7,359.9z M733,359.9l3,1.8
	l-27.6,47.8l-3-1.8L733,359.9z M455.5,364.7l29.2,46.8l-3,1.8l-29.2-46.8L455.5,364.7z M741.2,364.7l3,1.9l-29.2,46.8l-3-1.8
	L741.2,364.7z M447.5,369.9l30.8,45.7l-2.9,2l-30.8-45.7L447.5,369.9z M749.2,369.9l2.9,2l-30.8,45.7l-2.9-2L749.2,369.9z
	 M439.7,375.3l32.4,44.6l-2.8,2.1l-32.4-44.6L439.7,375.3L439.7,375.3z M757.1,375.3l2.8,2.1L727.5,422l-2.8-2.1L757.1,375.3
	L757.1,375.3z M432,381l33.9,43.4l-2.7,2.2l-34-43.4L432,381z M764.7,381l2.8,2.2l-33.9,43.4l-2.8-2.2L764.7,381z M424.6,386.9
	l35.4,42.2l-2.7,2.2l-35.4-42.2L424.6,386.9z M772.1,386.9l2.7,2.2l-35.4,42.2l-2.7-2.2L772.1,386.9z M417.4,393.1l36.9,41l-2.6,2.3
	l-36.9-41L417.4,393.1z M779.3,393.1l2.6,2.3l-36.9,41l-2.6-2.3L779.3,393.1z M410.4,399.5l38.3,39.7l-2.5,2.4L407.9,402
	L410.4,399.5z M786.3,399.5l2.5,2.4l-38.3,39.7l-2.5-2.4L786.3,399.5z M403.6,406.2l39.7,38.3l-2.4,2.5l-39.7-38.3L403.6,406.2z
	 M793.1,406.2l2.4,2.5L755.9,447l-2.4-2.5L793.1,406.2z M397.1,413.1l41,36.9l-2.4,2.6l-41-36.9L397.1,413.1z M799.6,413.1l2.4,2.6
	l-41,36.9l-2.4-2.6L799.6,413.1z M390.8,420.2l42.2,35.4l-2.2,2.7l-42.2-35.4L390.8,420.2z M805.9,420.2l2.2,2.7l-42.2,35.4
	l-2.2-2.7L805.9,420.2z M384.8,427.6l43.4,33.9l-2.1,2.8l-43.5-33.9L384.8,427.6z M811.9,427.6l2.2,2.8l-43.5,33.9l-2.1-2.8
	L811.9,427.6z M379,435.2l44.6,32.4l-2.1,2.8L377,438L379,435.2z M817.7,435.2l2.1,2.8l-44.6,32.4l-2.1-2.8L817.7,435.2z
	 M373.5,442.9l45.7,30.8l-1.9,2.9l-45.7-30.8L373.5,442.9z M823.2,442.9l1.9,2.9l-45.7,30.8l-1.9-2.9L823.2,442.9z M368.3,450.8
	l46.8,29.2l-1.9,3l-46.8-29.2L368.3,450.8z M828.4,450.8l1.8,3L783.5,483l-1.9-3L828.4,450.8z M363.4,459l47.7,27.6l-1.8,3
	L361.6,462L363.4,459z M833.4,459l1.8,3l-47.7,27.6l-1.8-3L833.4,459z M358.7,467.2l48.7,25.9l-1.6,3.1l-48.7-25.9L358.7,467.2z
	 M838.1,467.2l1.6,3.1L791,496.2l-1.6-3.1L838.1,467.2z M354.3,475.7l49.6,24.2l-1.5,3.1l-49.6-24.2L354.3,475.7z M842.4,475.7
	l1.5,3.1L794.4,503l-1.5-3.1L842.4,475.7z M350.2,484.3l50.4,22.4l-1.4,3.2l-50.4-22.4L350.2,484.3z M846.5,484.3l1.4,3.2
	l-50.4,22.4l-1.4-3.2L846.5,484.3z M346.5,493l51.1,20.7l-1.3,3.3l-51.1-20.7L346.5,493z M850.2,493l1.3,3.3l-51.1,20.7l-1.3-3.3
	L850.2,493z M343,501.9l51.8,18.9l-1.2,3.3l-51.8-18.8L343,501.9z M853.7,501.9l1.2,3.3L803.1,524l-1.2-3.3L853.7,501.9z
	 M339.9,510.8l52.5,17l-1.1,3.3l-52.5-17.1L339.9,510.8z M856.9,510.8l1.1,3.3l-52.5,17.1l-1.1-3.3L856.9,510.8z M337,519.9l53,15.2
	l-1,3.4l-53-15.2L337,519.9z M859.7,519.9l1,3.4l-53,15.2l-1-3.4L859.7,519.9z M334.5,529.1l53.5,13.3l-0.8,3.4l-53.5-13.3
	L334.5,529.1z M862.3,529.1l0.8,3.4l-53.5,13.3l-0.8-3.4L862.3,529.1z M332.3,538.3l53.9,11.5l-0.7,3.4l-53.9-11.4L332.3,538.3z
	 M864.4,538.3l0.7,3.5l-54,11.4l-0.7-3.4L864.4,538.3L864.4,538.3z M330.4,547.7l54.3,9.6l-0.6,3.5l-54.3-9.6L330.4,547.7z
	 M866.3,547.7l0.6,3.5l-54.3,9.6l-0.6-3.5L866.3,547.7L866.3,547.7z M328.9,557l54.6,7.7l-0.5,3.5l-54.6-7.7L328.9,557z M867.9,557
	l0.5,3.5l-54.6,7.7l-0.5-3.5L867.9,557z M327.7,566.4l54.8,5.8l-0.4,3.5l-54.8-5.8L327.7,566.4z M869.1,566.4l0.4,3.5l-54.8,5.8
	l-0.4-3.5L869.1,566.4z M326.8,575.9l55,3.9l-0.2,3.5l-55-3.8L326.8,575.9z M870,575.9l0.2,3.5l-55,3.8l-0.2-3.5L870,575.9z
	 M326.2,585.4l55.1,1.9l-0.1,3.5l-55.1-1.9L326.2,585.4z M870.5,585.4l0.1,3.5l-55.1,1.9l-0.1-3.5L870.5,585.4z M326,594.9h55.1v3.5
	H326V594.9z M815.6,594.9h55.2v3.5h-55.2V594.9z M381.2,602.5l0.1,3.5l-55.1,1.9l-0.1-3.5L381.2,602.5z M815.5,602.5l55.1,1.9
	l-0.1,3.5l-55.1-1.9L815.5,602.5z M381.5,610.1l0.2,3.5l-55,3.8l-0.2-3.5L381.5,610.1z M815.2,610.1l55,3.8l-0.2,3.5l-55-3.8
	L815.2,610.1z M382.1,617.6l0.4,3.5l-54.8,5.8l-0.4-3.5L382.1,617.6z M814.6,617.6l54.8,5.8l-0.4,3.5l-54.8-5.8L814.6,617.6z
	 M383,625.2l0.5,3.5l-54.6,7.7l-0.5-3.5L383,625.2z M813.7,625.2l54.6,7.7l-0.5,3.5l-54.6-7.7L813.7,625.2z M384.1,632.7l0.6,3.5
	l-54.3,9.6l-0.6-3.5L384.1,632.7z M812.6,632.7l54.3,9.6l-0.6,3.5l-54.3-9.6L812.6,632.7L812.6,632.7z M385.5,640.1l0.7,3.4
	L332.3,655l-0.7-3.4L385.5,640.1z M811.2,640.1l54,11.5l-0.7,3.4l-53.9-11.5L811.2,640.1L811.2,640.1z M387.2,647.5l0.8,3.4
	l-53.5,13.3l-0.8-3.4L387.2,647.5z M809.6,647.5l53.5,13.3l-0.8,3.4l-53.5-13.3L809.6,647.5z M389.1,654.8l1,3.4l-53,15.2l-1-3.4
	L389.1,654.8z M807.7,654.8l53,15.2l-1,3.4l-53-15.2L807.7,654.8z M391.2,662.1l1.1,3.3l-52.5,17.1l-1.1-3.3L391.2,662.1z
	 M805.5,662.1l52.5,17l-1.1,3.3l-52.5-17.1L805.5,662.1z M393.6,669.3l1.2,3.3L343,691.5l-1.2-3.3L393.6,669.3z M803.1,669.3
	l51.8,18.9l-1.2,3.3l-51.8-18.9L803.1,669.3z M396.3,676.4l1.3,3.3l-51.1,20.7l-1.3-3.2L396.3,676.4z M800.5,676.4l51.1,20.7
	l-1.3,3.2l-51.1-20.7L800.5,676.4z M399.2,683.4l1.4,3.2l-50.4,22.4l-1.4-3.2L399.2,683.4z M797.5,683.4l50.4,22.4l-1.4,3.2
	l-50.4-22.4L797.5,683.4z M402.3,690.3l1.5,3.1l-49.6,24.2l-1.5-3.2L402.3,690.3z M794.4,690.3l49.6,24.2l-1.5,3.1l-49.6-24.2
	L794.4,690.3z M405.7,697.1l1.6,3.1l-48.7,25.9L357,723L405.7,697.1z M791,697.1l48.7,25.9l-1.6,3.1l-48.7-25.9L791,697.1z
	 M409.3,703.8l1.8,3l-47.7,27.6l-1.8-3L409.3,703.8z M787.4,703.8l47.7,27.6l-1.8,3l-47.7-27.6L787.4,703.8z M413.2,710.3l1.9,3
	l-46.8,29.2l-1.9-3L413.2,710.3z M783.5,710.3l46.8,29.2l-1.8,3l-46.8-29.2L783.5,710.3z M417.3,716.7l1.9,2.9l-45.7,30.8l-1.9-2.9
	L417.3,716.7z M779.4,716.7l45.7,30.8l-1.9,2.9l-45.7-30.8L779.4,716.7z M421.6,722.9l2.1,2.8L379,758.2l-2.1-2.8L421.6,722.9z
	 M775.1,722.9l44.6,32.4l-2.1,2.8l-44.6-32.4L775.1,722.9z M426.1,729l2.1,2.8l-43.4,34l-2.2-2.8L426.1,729z M770.6,729l43.5,34
	l-2.2,2.8l-43.4-34L770.6,729z M430.8,735l2.2,2.7l-42.2,35.4l-2.2-2.7L430.8,735z M765.9,735l42.2,35.4l-2.2,2.7l-42.2-35.4
	L765.9,735z M435.7,740.7l2.4,2.6l-41,36.9l-2.4-2.6L435.7,740.7z M761,740.7l41,36.9l-2.4,2.6l-41-36.9L761,740.7z M440.9,746.3
	l2.4,2.5l-39.7,38.3l-2.4-2.5L440.9,746.3z M755.8,746.3l39.7,38.3l-2.4,2.5l-39.7-38.3L755.8,746.3z M446.2,751.7l2.5,2.4
	l-38.3,39.7l-2.5-2.4L446.2,751.7z M750.5,751.7l38.3,39.7l-2.5,2.4L748,754.1L750.5,751.7z M451.7,756.9l2.6,2.4l-36.9,41l-2.6-2.4
	L451.7,756.9z M745,756.9l36.9,41l-2.6,2.4l-36.9-41L745,756.9z M457.4,761.9l2.7,2.3l-35.4,42.2l-2.7-2.3L457.4,761.9z
	 M739.3,761.9l35.4,42.2l-2.7,2.3l-35.4-42.2L739.3,761.9z M463.2,766.8l2.7,2.2L432,812.4l-2.8-2.1L463.2,766.8z M733.5,766.8
	l33.9,43.5l-2.8,2.1l-33.9-43.4L733.5,766.8z M469.2,771.4l2.8,2.1l-32.4,44.6l-2.8-2.1L469.2,771.4L469.2,771.4z M727.5,771.4
	l32.4,44.6l-2.8,2.1l-32.4-44.6L727.5,771.4L727.5,771.4z"/>
</svg>
