<?xml version="1.0" encoding="UTF-8"?>
<svg width="1200pt" height="1200pt" version="1.1" viewBox="0 0 1200 1200" xmlns="http://www.w3.org/2000/svg">
 <g>
  <path d="m750 937.5c0 20.711-16.789 37.5-37.5 37.5s-37.5-16.789-37.5-37.5 16.789-37.5 37.5-37.5 37.5 16.789 37.5 37.5"/>
  <path d="m525 562.5c0 20.711-16.789 37.5-37.5 37.5s-37.5-16.789-37.5-37.5 16.789-37.5 37.5-37.5 37.5 16.789 37.5 37.5"/>
  <path d="m808.2 264.3c-61.348-78.227-124.72-159.07-175.88-245.85-13.5-22.875-51.148-22.875-64.574 0-51.227 86.777-114.6 167.62-175.95 245.85-124.35 158.62-241.8 308.47-241.8 485.7 0 248.18 201.82 450 450 450s450-201.82 450-450c0-177.23-117.45-327.07-241.8-485.7zm-320.7 185.7c62.023 0 112.5 50.477 112.5 112.5s-50.477 112.5-112.5 112.5-112.5-50.477-112.5-112.5 50.477-112.5 112.5-112.5zm225 600c-62.023 0-112.5-50.477-112.5-112.5s50.477-112.5 112.5-112.5 112.5 50.477 112.5 112.5-50.477 112.5-112.5 112.5zm101.55-460.95-375 375c-7.3516 7.2734-16.949 10.949-26.551 10.949s-19.199-3.6758-26.551-10.949c-14.625-14.625-14.625-38.398 0-53.023l375-375c14.625-14.625 38.398-14.625 53.023 0 14.629 14.621 14.703 38.398 0.078125 53.023z"/>
 </g>
</svg>
