<?xml version="1.0" encoding="UTF-8"?>
<svg width="1200pt" height="1200pt" version="1.1" viewBox="0 0 1200 1200" xmlns="http://www.w3.org/2000/svg">
 <g>
  <path d="m644.4 802.8-6 21.598 22.801 6-6 22.801 22.801 6 7.1992-28.801 40.801-22.797v45.598l-21.602 21.602 16.801 16.801 16.801-16.801 15.602 16.801 16.797-16.801-21.598-21.602v-45.598l40.801 22.797 7.1992 28.801 22.801-6-6-22.801 22.797-6-6-21.598-28.797 7.1992-40.801-22.801 40.801-24 28.797 8.4023 6-22.801-22.797-6 6-22.801-22.801-6-7.1992 30-40.801 22.801v-46.801l21.598-21.602-16.797-15.598-15.602 15.598-16.801-15.598-16.801 15.598 21.602 21.602v46.801l-40.801-22.801-7.1992-30-22.801 6 6 22.801-22.801 6 6 22.801 30-8.4023 39.602 24-39.602 22.801z"/>
  <path d="m494.4 708c7.1992 0 10.801-4.8008 10.801-10.801v-10.801c0-7.1992-4.8008-10.801-10.801-10.801-7.1992 0-10.801 4.8008-10.801 10.801v10.801c0.003906 6 4.8008 10.801 10.801 10.801z"/>
  <path d="m494.4 866.4c-7.1992 0-10.801 4.8008-10.801 10.801l0.003906 10.801c0 7.1992 4.8008 10.801 10.801 10.801 7.1992 0 10.801-4.8008 10.801-10.801v-10.801c1.1953-7.1992-3.6016-10.801-10.805-10.801z"/>
  <path d="m574.8 786c0 7.1992 4.8008 10.801 10.801 10.801h10.801c7.1992 0 10.801-4.8008 10.801-10.801s-4.8008-10.801-10.801-10.801h-10.801c-7.2031 0-10.801 4.8008-10.801 10.801z"/>
  <path d="m393.6 798h10.801c7.1992 0 10.801-4.8008 10.801-10.801 0-7.1992-4.8008-10.801-10.801-10.801h-10.801c-7.1992 0-10.801 4.8008-10.801 10.801 0 7.1992 4.8008 10.801 10.801 10.801z"/>
  <path d="m566.4 732 8.3984-8.3984c4.8008-4.8008 4.8008-10.801 0-15.602s-10.801-4.8008-15.602 0l-8.3984 8.3984c-4.8008 4.8008-4.8008 10.801 0 15.602 3.6016 3.6016 12.004 3.6016 15.602 0z"/>
  <path d="m422.4 842.4-8.3984 8.3984c-4.8008 4.8008-4.8008 10.801 0 15.602 4.8008 4.8008 10.801 4.8008 15.602 0l8.3984-8.3984c4.8008-4.8008 4.8008-10.801 0-15.602-3.6016-4.7969-10.801-3.5977-15.602 0z"/>
  <path d="m566.4 842.4c-4.8008-4.8008-10.801-4.8008-15.602 0-4.8008 4.8008-4.8008 10.801 0 15.602l8.3984 8.3984c4.8008 4.8008 10.801 4.8008 15.602 0 4.8008-4.8008 4.8008-10.801 0-15.602z"/>
  <path d="m422.4 732c4.8008 4.8008 10.801 4.8008 15.602 0s4.8008-10.801 0-15.602l-8.3984-9.6016c-4.8008-4.8008-10.801-4.8008-15.602 0s-4.8008 10.801 0 15.602z"/>
  <path d="m550.8 787.2c0 31.148-25.25 56.402-56.402 56.402-31.148 0-56.398-25.254-56.398-56.402 0-31.148 25.25-56.398 56.398-56.398 31.152 0 56.402 25.25 56.402 56.398"/>
  <path d="m634.8 210h-33.602l-373.2 378 16.801 40.801h54v351.6l24 24 589.2-0.003906 24-24v-351.6h54l18-40.801zm253.2 746.4h-541.2v-345.6h541.2zm-579.6-381.6 309.6-313.2 309.6 313.2z"/>
 </g>
</svg>
