<?xml version="1.0" encoding="UTF-8"?>
<svg width="1200pt" height="1200pt" version="1.1" viewBox="0 0 1200 1200" xmlns="http://www.w3.org/2000/svg">
 <g>
  <path d="m614.4 230.4c-86.398-3.6016-169.2 26.398-231.6 86.398-62.398 60-97.199 140.4-97.199 226.8 0 70.801 22.801 138 67.199 194.4 38.398 49.199 64.801 96 81.602 145.2l1.1992 3.6016v126c0 15.602 12 30 27.602 32.398 6 69.605 64.801 124.8 136.8 124.8s130.8-55.199 136.8-126c15.602-2.3984 27.602-15.602 27.602-32.398l-0.003906-124.8 1.1992-3.6016c16.801-49.199 43.199-96 81.602-144 46.801-58.801 70.801-133.2 67.199-207.6-8.3984-162-139.2-294-300-301.2zm84 669.6v79.199h-196.8v-79.199zm-98.398 204c-36 0-64.801-26.398-70.801-60h141.6c-6 34.801-34.801 60-70.801 60zm194.4-406.8c-36 45.602-62.398 90-81.602 136.8h-225.6c-19.199-45.602-45.602-91.199-81.602-136.8-34.801-44.398-52.801-97.199-52.801-153.6 0-68.398 27.602-132 76.801-180 49.199-46.801 114-72 183.6-68.398 127.2 6 230.4 110.4 236.4 236.4 1.2031 61.203-17.996 118.8-55.199 165.6z"/>
  <path d="m600 156c18 0 32.398-14.398 32.398-32.398v-61.203c0-18-14.398-32.398-32.398-32.398s-32.398 14.398-32.398 32.398v61.199c0 18.004 14.398 32.402 32.398 32.402z"/>
  <path d="m361.2 196.8c6 10.801 16.801 16.801 28.801 16.801 6 0 10.801-1.1992 16.801-4.8008 15.602-9.6016 21.602-28.801 12-44.398l-30-52.801c-9.6016-15.602-28.801-21.602-44.398-12-15.602 9.6016-21.602 28.801-12 44.398z"/>
  <path d="m252 304.8-52.801-30c-15.602-9.6016-36-3.6016-44.398 12-9.6016 15.602-3.6016 36 12 44.398l52.801 30c4.8008 2.3984 10.801 4.8008 16.801 4.8008 10.801 0 22.801-6 28.801-16.801 8.3984-14.398 2.3984-34.801-13.203-44.398z"/>
  <path d="m212.4 543.6c0-18-14.398-32.398-32.398-32.398l-61.199-0.003906c-18 0-32.398 14.398-32.398 32.398s14.398 32.398 32.398 32.398l61.199 0.003906c18 1.1992 32.398-14.398 32.398-32.398z"/>
  <path d="m219.6 726-52.801 30c-15.602 9.6016-21.602 28.801-12 44.398 6 10.801 16.801 16.801 28.801 16.801 6 0 10.801-1.1992 16.801-4.8008l52.801-30c15.602-9.6016 21.602-28.801 12-44.398-9.6016-15.602-30.004-21.602-45.602-12z"/>
  <path d="m1033.2 756-52.801-30c-15.602-9.6016-36-3.6016-44.398 12-9.6016 15.602-3.6016 36 12 44.398l52.801 30c4.8008 2.3984 10.801 4.8008 16.801 4.8008 10.801 0 22.801-6 28.801-16.801 7.1992-15.598 2.3984-34.797-13.203-44.398z"/>
  <path d="m1081.2 511.2h-61.199c-18 0-32.398 14.398-32.398 32.398s14.398 32.398 32.398 32.398h61.199c18 0 32.398-14.398 32.398-32.398 0.003906-17.996-14.398-32.398-32.398-32.398z"/>
  <path d="m963.6 366c6 0 10.801-1.1992 16.801-4.8008l52.801-30c15.602-9.6016 21.602-28.801 12-44.398-9.6016-15.602-28.801-21.602-44.398-12l-52.805 30c-15.602 9.6016-21.602 28.801-12 44.398 6 12 16.801 16.801 27.602 16.801z"/>
  <path d="m793.2 208.8c4.8008 2.3984 10.801 4.8008 16.801 4.8008 10.801 0 22.801-6 28.801-16.801l30-52.801c9.6016-15.602 3.6016-36-12-44.398-15.602-9.6016-36-3.6016-44.398 12l-30 52.801c-9.6016 14.398-4.8008 34.797 10.797 44.398z"/>
 </g>
</svg>
