<?xml version="1.0" encoding="UTF-8"?>
<svg width="1200pt" height="1200pt" version="1.1" viewBox="0 0 1200 1200" xmlns="http://www.w3.org/2000/svg">
 <g>
  <path d="m608.59 1199.5c-98.23 0-150.1-27.719-158.86-168.26 0-10.211-1.2969-19.777-1.7812-29.176-3.7266-70.188-5.9961-112.5-44.254-166.31l-9.2383-12.969c-46.848-64.84-91.098-127.73-91.098-215.1 0.21484-82.473 33.105-161.5 91.469-219.77 58.363-58.273 137.45-91.043 219.92-91.129 82.531 0.12891 161.64 32.984 219.98 91.355 58.344 58.375 91.156 137.5 91.242 220.04 0 87.371-44.254 149.45-90.938 215.1l-9.2383 12.969c-38.254 53.816-40.523 96.125-44.414 166.31 0 9.4023-0.97266 18.965-1.6211 29.176-8.9141 143.78-62.895 169.23-165.34 168.09zm6.1602-854.57c-69.746 0.085938-136.6 27.863-185.88 77.227s-76.926 116.27-76.883 186.02c0 71.809 38.094 125.14 82.02 186.9l9.4023 12.969c46.199 64.84 48.629 118.49 53.168 191.92 0 9.2383 0.97266 18.805 1.6211 28.852 7.457 118.66 41.172 123.36 117.04 122.38 75.859-0.97266 109.41-3.7266 116.87-122.38 0-10.051 1.1328-19.613 1.6211-28.852 3.8906-73.43 6.8086-126.6 53.168-191.92l9.2383-12.969c43.441-61.762 82.02-114.28 82.02-186.9-0.042969-69.648-27.715-136.43-76.949-185.7-49.23-49.262-116-76.98-185.64-77.066z"/>
  <path d="m684.78 1013.1h-141.84c-8.6875 0-16.715-4.6328-21.055-12.156-4.3438-7.5234-4.3438-16.793 0-24.312 4.3398-7.5234 12.367-12.16 21.055-12.16h141.84c8.6875 0 16.711 4.6367 21.055 12.16 4.3438 7.5195 4.3438 16.789 0 24.312-4.3438 7.5234-12.367 12.156-21.055 12.156z"/>
  <path d="m677.48 1099.7h-123.36c-8.6836 0-16.711-4.6367-21.055-12.16-4.3438-7.5234-4.3438-16.789 0-24.312 4.3438-7.5234 12.371-12.156 21.055-12.156h123.36c8.6875 0 16.715 4.6328 21.059 12.156 4.3438 7.5234 4.3438 16.789 0 24.312-4.3438 7.5234-12.371 12.16-21.059 12.16z"/>
  <path d="m616.05 174.25c-6.4492 0-12.633-2.5625-17.191-7.1211-4.5625-4.5586-7.1211-10.746-7.1211-17.195v-125.62c0-8.6875 4.6328-16.715 12.156-21.059s16.793-4.3438 24.312 0c7.5234 4.3438 12.16 12.371 12.16 21.059v125.62c0 6.4492-2.5625 12.637-7.1211 17.195-4.5625 4.5586-10.746 7.1211-17.195 7.1211z"/>
  <path d="m615.07 904.82c-6.4492 0-12.633-2.5625-17.191-7.125-4.5625-4.5586-7.1211-10.742-7.1211-17.191v-111.52c0-8.6875 4.6328-16.711 12.156-21.055 7.5234-4.3438 16.793-4.3438 24.312 0 7.5234 4.3438 12.16 12.367 12.16 21.055v111.52c0 6.4492-2.5625 12.633-7.1211 17.191-4.5625 4.5625-10.746 7.125-17.195 7.125z"/>
  <path d="m582.66 786c-6.3125 0.10156-12.414-2.2617-17.016-6.5781-4.6016-4.3203-7.3438-10.258-7.6484-16.562-0.30469-6.3047 1.8555-12.48 6.0234-17.219l42.633-46.684h-89.316l105.85-119.46c5.793-6.5156 14.617-9.4453 23.156-7.6875 8.5391 1.7578 15.488 7.9336 18.234 16.207 2.7461 8.2734 0.87109 17.383-4.918 23.898l-34.203 38.094h91.91l-116.71 128.05c-4.5742 5.1133-11.133 8.0078-17.992 7.9414z"/>
  <path d="m926.62 289.99c-6.168-0.003907-12.105-2.3516-16.605-6.5664-4.5039-4.2188-7.2344-9.9883-7.6445-16.141-0.40625-6.1562 1.5391-12.234 5.4453-17.008l68.082-83.156c4.0117-5.2031 9.9609-8.5586 16.492-9.3047 6.5273-0.74609 13.078 1.1836 18.164 5.3477 5.082 4.1641 8.2656 10.207 8.8203 16.754 0.55859 6.5469-1.5625 13.043-5.8711 18l-67.918 83.156c-4.6797 5.6484-11.633 8.9141-18.965 8.918z"/>
  <path d="m1061.2 582.25c-6.4492 0.42969-12.805-1.7188-17.668-5.9766-4.8633-4.2539-7.8359-10.27-8.2656-16.715-0.42969-6.4492 1.7188-12.805 5.9727-17.668 4.2578-4.8633 10.27-7.8398 16.719-8.2695l101.63-13.617h0.003906c8.6836-1.1562 17.328 2.4062 22.676 9.3516 5.3477 6.9453 6.582 16.211 3.2422 24.312-3.3398 8.1055-10.75 13.809-19.438 14.965l-101.63 13.777z"/>
  <path d="m288.45 289.99c-7.2969 0.042968-14.215-3.2383-18.801-8.918l-68.082-83.156c-4.3086-4.957-6.4258-11.453-5.8711-18 0.55469-6.5469 3.7383-12.59 8.8203-16.754 5.0859-4.1641 11.637-6.0938 18.168-5.3477 6.5273 0.74609 12.477 4.1016 16.488 9.3047l68.082 83.156c3.9062 4.7734 5.8516 10.852 5.4453 17.008-0.41016 6.1523-3.1406 11.922-7.6406 16.141-4.5039 4.2148-10.441 6.5625-16.609 6.5664z"/>
  <path d="m153.43 582.25h-3.2422l-116.22-16.211c-8.6875-1.1562-16.098-6.8594-19.438-14.965-3.3398-8.1016-2.1055-17.367 3.2422-24.312 5.3477-6.9453 13.992-10.508 22.676-9.3516l116.22 16.211h0.003907c8.6836 0.57812 16.402 5.75 20.246 13.562 3.8398 7.8125 3.2227 17.078-1.6211 24.312-4.8477 7.2344-13.184 11.332-21.867 10.754z"/>
 </g>
</svg>
