<?xml version="1.0" encoding="UTF-8"?>
<svg width="1200pt" height="1200pt" version="1.1" viewBox="0 0 1200 1200" xmlns="http://www.w3.org/2000/svg">
 <g>
  <path d="m675.57 776.34v25.191h-151.14v-25.191c0-51.465-32.016-89.098-62.977-125.5-32.422-38.09-62.977-73.961-62.977-126.41 0-31.109 3.6797-57.512 9.5977-80.734l-20.809-20.781c-8.793 28.215-13.98 61.691-13.98 101.52 0 61.691 35.039 102.88 68.895 142.63 29.32 34.484 57.055 67.008 57.055 109.28v50.383h201.52v-50.383c0-11.965 2.3945-23.051 6.2227-33.703l-19.422-19.445c-7.375 16.188-11.984 33.672-11.984 53.145z"/>
  <path d="m757.82 667.06c33.883-39.75 68.895-80.938 68.895-142.63 0-249.01-201.52-251.91-226.71-251.91-18.465 0-131.85 1.6875-190.95 100.94l-111.87-111.87-17.809 17.809 641.27 641.25 17.809-17.809-205.4-205.4c7.6875-10.152 16.102-20.203 24.766-30.379zm-329.95-274.78c47.082-85.547 137.77-94.566 172.12-94.566 47.281 0 201.52 16.324 201.52 226.71 0 52.445-30.555 88.316-62.902 126.3-7.9844 9.3945-16.047 18.895-23.629 28.691z"/>
  <path d="m524.43 851.91h151.14v25.191h-151.14z"/>
  <path d="m549.62 902.29h100.76v25.191h-100.76z"/>
 </g>
</svg>
