<?xml version="1.0" encoding="UTF-8"?>
<svg width="1200pt" height="1200pt" version="1.1" viewBox="0 0 1200 1200" xmlns="http://www.w3.org/2000/svg">
 <g>
  <path d="m1143.8 37.5h-1087.5c-4.9727 0-9.7422 1.9766-13.258 5.4922-3.5156 3.5156-5.4922 8.2852-5.4922 13.258v900c0 4.9727 1.9766 9.7422 5.4922 13.258 3.5156 3.5156 8.2852 5.4922 13.258 5.4922h451.88l15 150h-73.125v37.5h300v-37.5h-73.125l15-150h451.88c4.9727 0 9.7422-1.9766 13.258-5.4922 3.5156-3.5156 5.4922-8.2852 5.4922-13.258v-900c0-4.9727-1.9766-9.7422-5.4922-13.258-3.5156-3.5156-8.2852-5.4922-13.258-5.4922zm-18.75 37.5v245.98c-44.512 10.688-67.914 58.895-88.801 102.09-24.281 50.25-42.449 83.176-73.781 83.176s-49.5-32.926-73.781-83.176c-23.66-48.898-50.512-104.32-107.55-104.32-57.039 0-83.852 55.426-107.49 104.32-24.262 50.25-42.508 83.176-73.727 83.176s-49.461-32.926-73.742-83.156c-23.625-48.918-50.438-104.34-107.51-104.34s-83.852 55.426-107.49 104.32c-24.246 50.25-42.508 83.176-73.707 83.176-31.199 0-49.445-32.926-73.707-83.156-20.871-43.18-44.23-91.426-88.707-102.11v-245.98zm0 286.07v426.43h-1050v-426.41c20.625 10.668 36 39.094 54.957 78.336 23.625 48.902 50.398 104.33 107.46 104.33 57.055 0 83.852-55.426 107.48-104.32 24.258-50.25 42.523-83.176 73.723-83.176s49.461 32.926 73.742 83.176c23.645 48.898 50.438 104.32 107.51 104.32 57.074 0 83.867-55.445 107.49-104.34 24.285-50.23 42.527-83.156 73.727-83.156 31.199 0 49.48 32.926 73.781 83.176 23.645 48.898 50.457 104.32 107.55 104.32s83.906-55.426 107.55-104.32c18.977-39.262 34.406-67.688 55.031-78.355zm-485.62 763.93h-78.562l-15-150h108.56zm35.625-187.5h-600v-112.5h1050v112.5z"/>
  <path d="m656.25 881.25c0-14.918-5.9258-29.227-16.477-39.773-10.547-10.551-24.855-16.477-39.773-16.477s-29.227 5.9258-39.773 16.477c-10.551 10.547-16.477 24.855-16.477 39.773s5.9258 29.227 16.477 39.773c10.547 10.551 24.855 16.477 39.773 16.477s29.227-5.9258 39.773-16.477c10.551-10.547 16.477-24.855 16.477-39.773zm-56.25 18.75c-4.9727 0-9.7422-1.9766-13.258-5.4922-3.5156-3.5156-5.4922-8.2852-5.4922-13.258s1.9766-9.7422 5.4922-13.258c3.5156-3.5156 8.2852-5.4922 13.258-5.4922s9.7422 1.9766 13.258 5.4922c3.5156 3.5156 5.4922 8.2852 5.4922 13.258s-1.9766 9.7422-5.4922 13.258c-3.5156 3.5156-8.2852 5.4922-13.258 5.4922z"/>
  <path d="m431.25 168.75h93.75v-37.5h-112.5c-4.9727 0-9.7422 1.9766-13.258 5.4922-3.5156 3.5156-5.4922 8.2852-5.4922 13.258v112.5h37.5z"/>
  <path d="m562.5 131.25h75v37.5h-75z"/>
  <path d="m675 131.25h112.5v37.5h-112.5z"/>
  <path d="m825 131.25h75v37.5h-75z"/>
  <path d="m468.75 187.5h431.25v37.5h-431.25z"/>
  <path d="m937.5 693.75h-93.75v37.5h112.5c4.9727 0 9.7422-1.9766 13.258-5.4922 3.5156-3.5156 5.4922-8.2852 5.4922-13.258v-112.5h-37.5z"/>
  <path d="m731.25 693.75h75v37.5h-75z"/>
  <path d="m581.25 693.75h112.5v37.5h-112.5z"/>
  <path d="m581.25 581.25h262.5v37.5h-262.5z"/>
  <path d="m581.25 637.5h112.5v37.5h-112.5z"/>
  <path d="m731.25 637.5h112.5v37.5h-112.5z"/>
  <path d="m468.75 243.75h112.5v37.5h-112.5z"/>
  <path d="m618.75 243.75h112.5v37.5h-112.5z"/>
  <path d="m150 581.25h37.5v37.5h-37.5z"/>
  <path d="m150 637.5h37.5v37.5h-37.5z"/>
  <path d="m150 693.75h37.5v37.5h-37.5z"/>
  <path d="m225 693.75h37.5v37.5h-37.5z"/>
  <path d="m150 131.25h37.5v37.5h-37.5z"/>
  <path d="m225 131.25h37.5v37.5h-37.5z"/>
  <path d="m150 206.25h37.5v37.5h-37.5z"/>
 </g>
</svg>
