<?xml version="1.0" encoding="UTF-8"?>
<svg width="1200pt" height="1200pt" version="1.1" viewBox="0 0 1200 1200" xmlns="http://www.w3.org/2000/svg">
 <g>
  <path d="m599.95 493.35c-11.051 0-20 8.9492-20 20v136.8l-59.801-38.148c-9.3008-5.9492-21.699-3.25-27.602 6.1016-5.9492 9.3516-3.1992 21.699 6.1016 27.648l90.602 57.801c0.35156 0.19922 0.80078 0.14844 1.1484 0.35156 2.8984 1.6016 6.0508 2.8008 9.6016 2.8008s6.6992-1.1484 9.6016-2.8008c0.35156-0.19922 0.80078-0.10156 1.1484-0.35156l90.648-57.801c9.3516-5.9492 12.051-18.301 6.1016-27.602-5.9492-9.3984-18.398-12.102-27.602-6.1484l-59.898 38.199v-136.8c-0.050781-11.102-9-20.051-20.051-20.051z"/>
  <path d="m1104.4 1025.9c-51.301-7.8516-104.55-4.75-162.7 9.3516-70.801 17.199-139.65 42.699-198.6 65.301-39.699 15.148-75.75 25.199-110.05 30.648-41 6.5508-82.699 0.10156-126.9-19.852l-41.5-19.051c-24.602-11.398-49.199-22.75-74.148-33.398-67.301-28.801-124.35-39.699-180.15-34.898-24.398 2.1992-48.801 5.6016-73.102 9-13.699 1.8984-27.449 3.8516-41.148 5.5-11 1.3516-18.75 11.352-17.449 22.301 1.3516 11 11.449 18.551 22.301 17.398 13.949-1.6992 27.898-3.6484 41.801-5.6016 23.699-3.3008 47.352-6.6016 71.199-8.75 48.699-4.25 99.801 5.75 160.8 31.801 24.551 10.5 48.852 21.75 73.102 32.949l41.898 19.199c38.398 17.301 75.301 25.898 112 25.898 12.551 0 25.102-1 37.602-3 37.102-5.8984 75.699-16.648 118-32.801 57.852-22.102 125.25-47.148 193.8-63.801 52.898-12.852 101.05-15.699 147.15-8.6484 10.602 1.6016 21.148-5.8008 22.801-16.75 1.6953-10.945-5.8047-21.145-16.707-22.797z"/>
  <path d="m148.95 926.75c1.8008 10.852 11.602 18.301 23 16.449l13-2.3516c8.75-1.6484 17.602-3.3008 26.551-4.1016l11.352-1c25.648-2.25 51.352-4.5508 77.102-4.6992h0.85156c29.551 0 57.398 10.398 90.199 25.949 14 6.6484 27.949 13.602 41.801 20.551 22.195 11.152 44.445 22.305 67.195 32.305 23.949 10.5 48.051 18.102 71.699 22.449 9.3516 1.75 18.602 2.5 27.699 2.5 29.5 0 57.5-7.9492 82.051-16.352 22.051-7.5508 43.949-15.852 65.801-24.102 25.449-9.6484 50.898-19.301 76.699-27.75 36.102-11.852 75.602-22.699 124.2-34.199 24.801-5.8516 51.949-6.3008 80.801-1.3984 11.602 1.9492 21.25-5.5508 23.102-16.398 1.8516-10.898-5.4492-21.199-16.352-23.051-34.25-5.8008-66.75-5.1484-96.75 1.9492-49.75 11.75-90.301 22.898-127.55 35.102-26.352 8.6484-52.352 18.5-78.352 28.301-21.5 8.1484-42.898 16.301-64.648 23.699-28.5 9.75-59.102 17.949-89.398 12.352-20.602-3.8516-41.801-10.5-62.898-19.801-22.148-9.75-43.801-20.602-65.5-31.398-14.148-7.0508-28.25-14.102-42.551-20.898-32.602-15.5-68.199-29.801-107.35-29.801h-1.0508c-26.801 0.14844-53.602 2.5-80.352 4.8516l-11.25 1c-10.301 0.89844-20.5 2.75-30.5 4.6484l-12.148 2.1992c-10.898 1.7969-18.297 12.098-16.449 22.996z"/>
  <path d="m174.55 628c0 66.449 14.898 130.1 44.25 189.1 3.5 7.0508 10.602 11.102 17.898 11.102 3.0508 0 6.0508-0.64844 8.8984-2.1016 9.8984-4.9492 13.898-16.949 9.0508-26.852-26.551-53.398-40.051-111.05-40.051-171.3 0-212.5 172.9-385.45 385.4-385.45 212.55 0 385.45 172.9 385.45 385.45 0 60.199-13.449 117.75-40 171.25-4.8984 9.8984-0.89844 21.898 9.0508 26.801 9.6016 4.8008 21.852 0.94922 26.801-9.0508 29.301-59 44.199-122.6 44.199-189 0-234.6-190.85-425.45-425.5-425.45-234.55 0.050781-425.45 190.9-425.45 425.5z"/>
  <path d="m600 26.25c-11.051 0-20 8.9492-20 20v79.301c0 11.051 9 20 20 20s20-8.9492 20-20v-79.301c0-11.051-8.9492-20-20-20z"/>
  <path d="m938.55 285.8c3.8984 3.8984 9.0508 5.8516 14.148 5.8516 5.1016 0 10.25-1.9492 14.148-5.8516l56.051-56.102c7.8008-7.8008 7.8008-20.5 0-28.25-7.8008-7.8008-20.5-7.8008-28.301 0l-56.047 56.051c-7.8008 7.8516-7.8008 20.5 0 28.301z"/>
  <path d="m1178.1 604.35h-79.301c-11.051 0-20 8.9492-20 20 0 11.051 9 20 20 20h79.301c11.051 0 20-8.9492 20-20 0-11.051-9-20-20-20z"/>
  <path d="m121.25 624.35c0-11.051-9-20-20-20h-79.352c-11.051 0-20 8.9492-20 20 0 11.051 9 20 20 20h79.352c11 0 20-8.9531 20-20z"/>
  <path d="m177.05 201.45c-7.8008 7.8008-7.8008 20.5 0 28.25l56.102 56.102c3.8984 3.8984 9.0508 5.8516 14.148 5.8516 5.1016 0 10.25-1.9492 14.148-5.8516 7.8008-7.8008 7.8008-20.5 0-28.25l-56.098-56.102c-7.8008-7.8008-20.5-7.8008-28.301 0z"/>
 </g>
</svg>
