<?xml version="1.0" encoding="UTF-8"?>
<svg width="1200pt" height="1200pt" version="1.1" viewBox="0 0 1200 1200" xmlns="http://www.w3.org/2000/svg">
 <g>
  <path d="m600 963.6c-13.43 0-22.801 9.3711-22.801 22.801 0 13.43 9.3711 22.801 22.801 22.801s22.801-9.3711 22.801-22.801c0-13.43-9.3711-22.801-22.801-22.801z"/>
  <path d="m650.39 963.6c-13.414 0-22.789 9.3711-22.789 22.801 0 13.43 9.3711 22.801 22.789 22.801 13.43 0 22.801-9.3711 22.801-22.801 0-13.43-9.3711-22.801-22.801-22.801z"/>
  <path d="m549.6 963.6c-13.414 0-22.789 9.3711-22.789 22.801 0 13.43 9.3711 22.801 22.789 22.801 13.414 0 22.789-9.3711 22.789-22.801-0.003906-13.43-9.375-22.801-22.789-22.801z"/>
  <path d="m650.39 913.21c-13.414 0-22.789 9.3711-22.789 22.801 0 13.414 9.3711 22.789 22.789 22.789 13.43 0 22.801-9.3711 22.801-22.789 0.011719-13.426-9.3711-22.801-22.801-22.801z"/>
  <path d="m499.2 913.21c-13.43 0-22.801 9.3711-22.801 22.801 0 13.414 9.3711 22.789 22.801 22.789 13.43 0 22.801-9.3711 22.801-22.789 0-13.426-9.3711-22.801-22.801-22.801z"/>
  <path d="m549.6 261.61h100.79c13.43 0 22.801-9.3711 22.801-22.801 0-13.414-9.3711-22.789-22.801-22.789h-100.79c-13.414 0-22.789 9.3711-22.789 22.789-0.011719 13.426 9.3711 22.801 22.789 22.801z"/>
  <path d="m549.6 913.21c-13.414 0-22.789 9.3711-22.789 22.801 0 13.414 9.3711 22.789 22.789 22.789 13.414 0 22.789-9.3711 22.789-22.789-0.003906-13.426-9.375-22.801-22.789-22.801z"/>
  <path d="m600 358.8c-130.75 0-241.2 110.46-241.2 241.21 0 13.414 9.3711 22.789 22.801 22.789 13.43 0 22.801-9.3711 22.801-22.789-0.003906-106.03 89.566-195.61 195.6-195.61 107.84 0 195.6 87.742 195.6 195.61 0 13.414 9.3711 22.789 22.789 22.789 13.43 0 22.801-9.3711 22.801-22.789 0.007813-133.01-108.2-241.21-241.19-241.21z"/>
  <path d="m600 291.61c-169.13 0-306.72 137.59-306.72 306.72 0 169.13 137.59 306.72 306.72 306.72s306.72-137.6 306.72-306.73c0-169.13-137.59-306.71-306.72-306.71zm0 571.19c-144.91 0-262.8-117.89-262.8-262.79 0-144.91 117.89-262.8 262.8-262.8 144.9 0 262.79 117.89 262.79 262.8 0 144.9-117.89 262.79-262.79 262.79z"/>
  <path d="m600 56.398c-299.75 0-543.6 243.87-543.6 543.61 0 299.73 243.86 543.59 543.6 543.59s543.6-243.85 543.6-543.59c0-299.75-243.86-543.61-543.6-543.61zm0 1041.6c-274.6 0-498-223.4-498-498 0-274.6 223.4-498 498-498s498 223.4 498 498c0 274.6-223.4 498-498 498z"/>
  <path d="m692.39 451.21c-13.414 0-22.789 9.3711-22.789 22.801 0 13.414 9.3711 22.789 22.789 22.789 13.43 0 22.801-9.3711 22.801-22.789 0.011719-13.426-9.3711-22.801-22.801-22.801z"/>
  <path d="m600 123.61c-262.69 0-476.4 213.72-476.4 476.4 0 262.68 213.71 476.39 476.4 476.39s476.39-213.71 476.39-476.39c0-262.68-213.7-476.4-476.39-476.4zm0 907.19c-237.54 0-430.8-193.25-430.8-430.79 0-237.55 193.25-430.8 430.8-430.8 237.54 0 430.79 193.25 430.79 430.8 0 237.54-193.25 430.79-430.79 430.79z"/>
  <path d="m700.8 913.21c-13.43 0-22.801 9.3711-22.801 22.801 0 13.414 9.3711 22.789 22.801 22.789 13.414 0 22.789-9.3711 22.789-22.789 0.011718-13.426-9.3633-22.801-22.789-22.801z"/>
  <path d="m549.6 543.6h-25.211c-13.414 0-22.789 9.3711-22.789 22.801 0 13.43 9.3711 22.801 22.789 22.801l19.211-0.003906v78c0 13.43 9.3711 22.801 22.789 22.801 13.43 0 22.801-9.3711 22.801-22.801v-84c0.007813-23.316-16.277-39.598-39.59-39.598z"/>
  <path d="m650.39 543.6h-33.586c-13.43 0-22.801 9.3711-22.801 22.801 0 13.43 9.3711 22.801 22.801 22.801h27.59v4.8008l-10.789-0.003906c-23.316 0-39.602 16.273-39.602 39.59v16.801c0 23.316 16.273 39.613 39.602 39.613h33.602c13.43 0 22.801-9.3711 22.801-22.801s-9.3711-22.801-22.801-22.801h-27.602v-4.8008h10.789c23.316 0 39.613-16.273 39.613-39.59v-16.801c-0.003906-23.328-16.289-39.609-39.617-39.609z"/>
 </g>
</svg>
