<?xml version="1.0" encoding="UTF-8"?>
<svg width="1200pt" height="1200pt" version="1.1" viewBox="0 0 1200 1200" xmlns="http://www.w3.org/2000/svg">
 <path d="m600 60c-298.21 0-540 241.79-540 540s241.79 540 540 540 540-241.79 540-540-241.79-540-540-540zm0 3.5078c296.32 0 536.5 240.18 536.5 536.5s-240.18 536.5-536.5 536.5-536.5-240.18-536.5-536.5c0.003906-296.32 240.18-536.5 536.5-536.5zm0 41.059v-0.003906c-131.39 0.003906-257.41 52.203-350.32 145.11-92.91 92.91-145.11 218.93-145.11 350.32 0.003906 131.39 52.203 257.41 145.11 350.32 92.91 92.91 218.93 145.11 350.32 145.11 131.39-0.003907 257.41-52.203 350.32-145.11 92.91-92.91 145.11-218.93 145.11-350.32-0.003906-131.39-52.203-257.41-145.11-350.32-92.91-92.91-218.93-145.11-350.32-145.11zm-10.078 219.72h16.871l-2.6289 79.68h-11.613zm-8.8203 0.54688 3.8633 55-3.5078 0.24609-3.8359-55zm34.512 0 3.5078 0.24609-3.8633 55-3.5078-0.24609zm-43.988 0.76562 5.7812 54.836-3.5078 0.35547-5.7539-54.836zm53.465 0 3.4805 0.35547-5.7539 54.836-3.5078-0.35547zm-62.914 1.0938 7.6953 54.617-3.4805 0.46484-7.668-54.59zm72.363 0 3.4531 0.49219-7.668 54.59-3.4531-0.46484zm-81.758 1.4258 9.5859 54.312-3.4531 0.60156-9.5859-54.312zm91.156 0 3.4531 0.60156-9.5859 54.312-3.4531-0.60156zm-100.5 1.7539 11.477 53.93-3.4531 0.73828-11.449-53.93zm109.84 0 3.4258 0.73828-11.449 53.93-3.4531-0.73828zm-119.12 2.082 13.34 53.492-3.3945 0.84766-13.34-53.492zm128.4 0 3.3945 0.84766-13.34 53.492-3.3945-0.84766zm-137.58 2.4102 15.176 53-3.3672 0.95703-15.203-53zm146.79 0 3.3672 0.95703-15.203 53-3.3672-0.95703zm-155.9 2.7109 17.035 52.453-3.3398 1.0664-17.035-52.426zm165 0 3.3398 1.0938-17.035 52.426-3.3398-1.0664zm-174.01 3.0391 18.871 51.82-3.3125 1.1797-18.844-51.797 3.2852-1.207zm183.02 0 3.2852 1.207-18.844 51.797-3.2852-1.1797 18.844-51.82zm-191.93 3.3398 20.652 51.137-3.2305 1.3164-20.68-51.137zm200.82 0 3.2578 1.3164-20.652 51.137-3.2578-1.3164zm-209.59 3.6719 22.434 50.371-3.2031 1.4258-22.434-50.371zm218.35 0 3.2031 1.4258-22.406 50.371-3.2031-1.4258zm-227.02 3.9727 24.188 49.551-3.1484 1.5352-24.188-49.551zm235.67 0 3.1484 1.5352-24.188 49.551-3.1484-1.5352zm-244.15 4.2461 25.883 48.699-3.0938 1.6445-25.883-48.699zm252.65 0 3.0938 1.6445-25.883 48.699-3.0938-1.6445zm-261 4.5469 27.582 47.77-3.0391 1.7539-27.582-47.77zm269.35 0 3.0391 1.7539-27.582 47.77-3.0391-1.7539zm-277.52 4.8477 29.199 46.781-2.957 1.8359-29.227-46.754zm285.71 0 2.957 1.8633-29.227 46.754-2.957-1.8359zm-293.73 5.1211 30.84 45.715-2.9023 1.9727-30.84-45.715zm301.73 0 2.9023 1.9727-30.84 45.715-2.9023-1.9727zm-309.54 5.4219 32.402 44.594-2.8477 2.082-32.402-44.617 2.8477-2.0547zm317.38 0 2.8203 2.0547-32.402 44.617-2.8477-2.082 32.43-44.594zm-325.01 5.668 33.938 43.441-2.7383 2.1641-33.965-43.441zm332.63 0 2.7656 2.1641-33.938 43.441-2.7656-2.1641zm-340.05 5.9453 35.441 42.238-2.6836 2.2461-35.441-42.238zm347.47 0 2.6836 2.2461-35.441 42.238-2.6836-2.2461zm-354.71 6.1914 36.922 40.977-2.6289 2.3281-36.895-40.977zm361.93 0 2.6016 2.3281-36.895 40.977-2.6016-2.3281zm-368.91 6.4375 38.32 39.66-2.5469 2.4375-38.293-39.66zm375.9 0 2.5195 2.4375-38.293 39.66-2.5195-2.4375zm-382.67 6.6836 39.66 38.293-2.4375 2.5195-39.66-38.293zm389.44 0 2.4375 2.5195-39.66 38.293-2.4375-2.5195zm-395.95 6.9023 40.977 36.895-2.3555 2.6016-40.977-36.895zm402.47 0 2.3555 2.6016-40.977 36.895-2.3555-2.6016zm-408.77 7.1211 42.238 35.441-2.2461 2.6836-42.238-35.441zm415.07 0 2.2461 2.6836-42.238 35.441-2.2461-2.6836zm-421.11 7.3672 43.441 33.938-2.1367 2.7656-43.469-33.938zm427.13 0 2.1641 2.7656-43.469 33.938-2.1367-2.7656zm-432.9 7.5586 44.617 32.402-2.0547 2.8203-44.617-32.402zm438.68 0 2.0547 2.8203-44.617 32.402-2.0547-2.8203zm-444.19 7.75 45.715 30.812-1.9453 2.9297-45.715-30.84zm449.7 0 1.9453 2.9023-45.715 30.84-1.9453-2.9297zm-454.89 7.9414 46.754 29.199-1.8633 2.9844-46.754-29.227zm460.13 0 1.8359 2.957-46.754 29.227-1.8633-2.9844zm-465.09 8.1094 47.742 27.582-1.7539 3.0117-47.742-27.555zm470.02 0 1.7539 3.0391-47.742 27.555-1.7539-3.0117zm-474.67 8.2734 48.672 25.91-1.6445 3.0938-48.672-25.91zm479.35 0 1.6445 3.0938-48.699 25.91-1.6445-3.0938zm-483.74 8.4648 49.551 24.16-1.5352 3.1484-49.551-24.16zm488.1 0 1.5352 3.1484-49.551 24.16-1.5352-3.1484zm-492.18 8.5742 50.371 22.434-1.4258 3.2031-50.371-22.434zm496.26 0 1.4258 3.2031-50.371 22.434-1.4258-3.2031zm-500.02 8.7383 51.109 20.652-1.3164 3.2578-51.109-20.652zm503.76 0 1.3164 3.2578-51.109 20.652-1.3164-3.2578zm-507.24 8.8477 51.82 18.871-1.207 3.2852-51.82-18.844zm510.72 0 1.207 3.3125-51.82 18.844-1.207-3.2852zm-513.86 8.9844 52.453 17.035-1.0938 3.3398-52.453-17.062zm517.02 0 1.0938 3.3125-52.453 17.062-1.0938-3.3398zm-519.86 9.0664 53.027 15.203-0.98438 3.3672-53-15.203zm522.72 0 0.95703 3.3672-53 15.203-0.95703-3.3672zm-525.24 9.1758 53.52 13.34-0.84766 3.3945-53.52-13.34zm527.76 0 0.84766 3.3945-53.52 13.34-0.84766-3.3945zm-529.95 9.2305 53.93 11.477-0.71094 3.4258-53.93-11.449zm532.14 0 0.73828 3.4531-53.961 11.449-0.71094-3.4258 53.93-11.477zm-534 9.3398 54.289 9.5586-0.60156 3.4531-54.289-9.5586zm535.86 0 0.62891 3.4531-54.312 9.5586-0.60156-3.4531 54.289-9.5586zm-537.42 9.3672 54.617 7.668-0.49219 3.4805-54.617-7.668zm538.99 0 0.49219 3.4805-54.617 7.668-0.49219-3.4805zm-540.19 9.4219 54.836 5.7812-0.38281 3.4805-54.836-5.7539zm541.39 0 0.38281 3.5078-54.836 5.7539-0.38281-3.4805zm-542.3 9.4766 55 3.8633-0.21875 3.4805-55.027-3.8359zm543.2 0 0.24609 3.5078-55 3.8359-0.24609-3.4805zm-543.76 9.5039 55.109 1.918-0.13672 3.5078-55.109-1.918zm544.3 0 0.13672 3.5078-55.109 1.918-0.13672-3.5078zm-544.52 9.5039h55.137v3.5078h-55.137zm489.6 0h55.164v3.5078h-55.164zm-434.41 7.5586 0.13672 3.5078-55.109 1.9453-0.13672-3.5078zm434.35 0 55.109 1.9453-0.13672 3.5078-55.109-1.9453zm-434 7.5859 0.21875 3.5078-55 3.8359-0.24609-3.5078zm433.67 0 55 3.8359-0.24609 3.5078-55-3.8359zm-433.09 7.5586 0.38281 3.4805-54.836 5.7812-0.38281-3.5078zm432.49 0 54.836 5.7539-0.38281 3.5078-54.836-5.7812zm-431.62 7.5312 0.49219 3.4805-54.617 7.668-0.49219-3.4805zm430.74 0 54.617 7.668-0.49219 3.4805-54.617-7.668zm-429.61 7.5039 0.60156 3.4531-54.289 9.5859-0.60156-3.4805zm428.5 0 54.312 9.5586-0.62891 3.4805-54.289-9.5859 0.60156-3.4531zm-427.09 7.4492 0.71094 3.4258-53.93 11.477-0.71094-3.4258zm425.7 0 53.961 11.477-0.73828 3.4258-53.93-11.477 0.71094-3.4258zm-424.05 7.3945 0.84766 3.4258-53.52 13.34-0.84766-3.4258zm422.41 0 53.52 13.34-0.84766 3.4258-53.52-13.34zm-420.53 7.3398 0.98438 3.3672-53.027 15.203-0.95703-3.3672zm418.63 0 53 15.203-0.95703 3.3672-53-15.203zm-416.47 7.2852 1.0938 3.3125-52.453 17.062-1.0938-3.3398zm414.3 0 52.453 17.035-1.0938 3.3398-52.453-17.062zm-411.9 7.1758 1.207 3.2852-51.82 18.871-1.207-3.2852zm409.49 0 51.82 18.871-1.207 3.2852-51.82-18.871zm-406.82 7.0938 1.3164 3.2578-51.109 20.652-1.3164-3.2305zm404.17 0 51.109 20.68-1.3164 3.2305-51.109-20.652zm-401.27 7.0117 1.4258 3.2031-50.371 22.434-1.4258-3.2031zm398.36 0 50.371 22.434-1.4258 3.2031-50.371-22.434zm-395.22 6.9023 1.5352 3.1484-49.551 24.188-1.5352-3.1758zm392.06 0 49.551 24.188-1.5352 3.1484-49.551-24.188zm-388.67 6.793 1.6445 3.0938-48.672 25.883-1.6445-3.0938zm385.27 0 48.699 25.883-1.6445 3.0938-48.699-25.883zm-381.66 6.6562 1.7539 3.0391-47.742 27.555-1.7539-3.0391zm378.04 0 47.742 27.555-1.7539 3.0391-47.742-27.555zm-374.18 6.5195 1.8633 2.9844-46.754 29.227-1.8633-2.9844zm370.32 0 46.754 29.227-1.8359 2.9844-46.781-29.227zm-366.24 6.4102 1.9453 2.9023-45.715 30.84-1.9453-2.9297zm362.16 0 45.715 30.812-1.9453 2.9297-45.715-30.84zm-357.85 6.2461 2.0547 2.8203-44.617 32.43-2.0547-2.8477zm353.55 0 44.617 32.402-2.0547 2.8477-44.617-32.43zm-349.03 6.082 2.1367 2.7656-43.441 33.965-2.1641-2.7656zm344.52 0 43.469 33.965-2.1641 2.7656-43.441-33.965zm-339.8 5.9453 2.2461 2.6836-42.238 35.441-2.2461-2.6836zm335.09 0 42.238 35.441-2.2461 2.6836-42.238-35.441zm-330.17 5.7539 2.3555 2.6016-40.977 36.895-2.3555-2.6016zm325.23 0 40.977 36.895-2.3555 2.6016-40.977-36.895zm-320.11 5.5859 2.4375 2.5195-39.66 38.32-2.4375-2.5195zm314.99 0 39.66 38.32-2.4375 2.5195-39.66-38.32zm-309.67 5.4219 2.5469 2.4102-38.32 39.688-2.5195-2.4375zm304.36 0 38.293 39.66-2.5195 2.4375-38.293-39.688zm-298.86 5.2031 2.6289 2.3555-36.922 40.977-2.6016-2.3555zm293.35 0 36.895 40.977-2.6016 2.3555-36.895-40.977zm-287.65 5.0117 2.6836 2.2734-35.441 42.238-2.6836-2.2734zm281.95 0 35.441 42.238-2.6836 2.2734-35.441-42.238zm-276.1 4.8203 2.7383 2.1641-33.938 43.441-2.7656-2.1367zm270.27 0 33.938 43.469-2.7656 2.1367-33.938-43.441zm-264.27 4.6289 2.8477 2.0547-32.402 44.617-2.8477-2.082 32.402-44.594zm258.24 0 32.402 44.594-2.8203 2.082-32.43-44.617 2.8477-2.0547z"/>
</svg>
